<svg width="126" height="24" xmlns="http://www.w3.org/2000/svg"><path d="M125.589 0c-1.326 2.497-2.38 5.092-2.849 7.895-.814 4.861-.19 9.532 1.887 14.007.297.64.611 1.274.947 1.97-.819 0-1.593.008-2.366-.009-.095-.002-.217-.112-.276-.204-2.582-3.998-4.065-8.303-3.71-13.13.241-3.289 1.322-6.297 2.977-9.123.272-.464.53-.937.794-1.406h2.596zM6.363 0c-.181.388-.353.781-.545 1.164-1.93 3.853-2.813 7.92-2.558 12.23.207 3.491 1.236 6.74 2.824 9.833.1.193.195.39.322.644-.846 0-1.622.008-2.397-.01-.09-.002-.204-.124-.264-.218C1.79 20.59.387 17.334.073 13.68c-.01-.109-.048-.215-.073-.322V10.52c.025-.12.063-.237.074-.358.232-2.577.973-5.007 2.164-7.298C2.743 1.893 3.31.954 3.85 0h2.512zm77.891 6.303c3.054.249 4.93 1.832 5.545 4.762.167.796.168 1.627.231 2.443.022.286.004.575.004.903h-9.28c-.448 2.5 1.652 4.485 4.052 3.882.743-.187 1.283-.619 1.537-1.34.11-.314.275-.383.58-.377.96.018 1.92.006 2.937.006-.03.188-.041.334-.078.473-.436 1.674-1.525 2.751-3.132 3.311a8.464 8.464 0 01-4.906.22c-2.113-.526-3.464-1.902-4.119-3.944a9.73 9.73 0 01-.107-5.677c.878-3.152 3.465-4.928 6.736-4.662zm20.195-.001a8.784 8.784 0 012.318.258c2.133.546 3.493 1.959 4.157 4.025.572 1.778.605 3.592.137 5.396-.819 3.156-3.305 4.953-6.635 4.84-3.541-.12-5.863-2.243-6.294-5.762-.06-.496-.084-.997-.14-1.675.078-.574.122-1.329.287-2.056.707-3.12 2.963-4.967 6.17-5.026zm-84.51-.005c.939.067 1.853.229 2.713.63 1.731.808 2.871 2.61 2.757 4.397h-3.342c-.046-.216-.081-.419-.132-.618-.253-.994-.817-1.712-1.864-1.922-1.11-.223-2.084.04-2.795.974-.594.78-.815 1.7-.902 2.652-.123 1.352-.11 2.7.36 3.998.552 1.523 1.784 2.196 3.375 1.87 1.03-.21 1.768-.998 1.988-2.121.035-.176.058-.354.091-.558h3.33c-.119 1.69-.73 3.092-2.119 4.092-.845.609-1.804.978-2.831 1.04-.953.059-1.937.083-2.869-.085-2.361-.427-3.856-1.897-4.542-4.168a9.833 9.833 0 01-.132-5.237c.808-3.318 3.448-5.19 6.914-4.944zm14.93.167c2.354.427 3.59 1.801 3.715 4.246.086 1.693.04 3.393.051 5.09.002.292-.003.585.001.877.016 1.008.144 1.165 1.137 1.378v2.473c-.94.013-1.856.079-2.748-.222-.654-.22-1.076-.673-1.311-1.31-.062-.167-.115-.337-.178-.52-.049.028-.095.039-.113.067-.954 1.544-2.416 2.117-4.152 2.126a6.735 6.735 0 01-1.493-.163c-2.108-.471-3.275-2.185-3.038-4.38.17-1.572 1.027-2.603 2.46-3.195 1.216-.503 2.508-.635 3.803-.74.735-.059 1.472-.095 2.33-.15-.089-.717-.111-1.388-.264-2.028-.19-.796-.769-1.237-1.585-1.335a4.095 4.095 0 00-.875-.016c-1.153.113-1.628.581-1.979 1.939h-3.272c.021-1.044.366-1.937 1.07-2.687.796-.85 1.823-1.265 2.944-1.462a9.895 9.895 0 013.498.012zm24.607.269c1.89.613 2.624 2.126 2.718 3.96.093 1.818.05 3.643.067 5.465v.542c.004.99.142 1.16 1.117 1.348v2.48c-.978.01-1.951.096-2.885-.278-.792-.318-1.131-.989-1.333-1.79-.06.045-.114.067-.138.107-.994 1.586-2.51 2.153-4.288 2.088a6.733 6.733 0 01-2.154-.43c-1.579-.613-2.394-2.174-2.235-4 .134-1.531.91-2.595 2.302-3.22 1.256-.565 2.604-.7 3.954-.812.735-.061 1.472-.095 2.344-.15-.09-.723-.113-1.407-.271-2.058-.188-.779-.765-1.229-1.564-1.298a4.675 4.675 0 00-1.405.082c-.763.17-1.21.702-1.372 1.466-.026.12-.05.24-.08.376H50.9c.135-.539.209-1.058.396-1.533.45-1.145 1.334-1.88 2.47-2.284 1.888-.67 3.814-.676 5.71-.061zm7.777.892c.902 2.894 1.8 5.788 2.696 8.683.065.212.107.43.16.646l.082-.006c.106-.414.192-.834.32-1.24a1900.27 1900.27 0 012.824-8.82c.034-.105.166-.256.255-.258 1.026-.018 2.053-.011 3.133-.011-.062.202-.1.346-.148.486-1.502 4.306-3.01 8.611-4.5 12.922-.119.342-.264.478-.643.465-.934-.031-1.869-.017-2.803-.005-.246.003-.369-.068-.454-.311-1.543-4.425-3.096-8.847-4.646-13.27a1.363 1.363 0 01-.035-.121l-.042-.168h2.409c1.072 0 1.077-.002 1.392 1.008zM49.781 6.389v3.293c-.314 0-.616-.007-.918.001-2.423.068-3.63 1.295-3.64 3.719-.009 2.072-.002 4.144-.002 6.217v.841h-3.416V6.644h3.214v2.611c1.053-1.856 2.583-2.851 4.762-2.866zM95.783 0c.005.139.014.278.014.416v20.029h-3.445c-.009-.127-.025-.248-.025-.369V.332c0-.11.015-.221.023-.332h3.433zm6.353 10.472c-.442 1.017-.526 2.096-.519 3.186.008 1.034.101 2.056.528 3.018.363.819.937 1.406 1.84 1.616 1.502.347 2.729-.277 3.312-1.698.399-.97.476-1.994.478-3.189-.005-.971-.084-2.092-.586-3.135-.4-.83-1.031-1.372-1.965-1.512-1.436-.216-2.508.378-3.088 1.714zM35.212 14.05c-1.002.124-1.97.228-2.93.37-.34.05-.68.164-.995.303-.891.392-1.248 1.137-1.068 2.154.147.831.782 1.357 1.71 1.43 2.217.177 3.618-1.9 3.283-4.257zm23.627.001c-.994.121-1.964.213-2.924.369-.42.067-.84.22-1.22.414-.737.377-1.021 1.104-.864 2.032.124.735.646 1.29 1.417 1.393.42.057.871.05 1.282-.044 1.72-.392 2.544-2.285 2.31-4.164zm23.017-4.758c-.794.785-1.018 1.805-1.15 2.894h5.773c.028-.712-.16-1.601-.448-2.187-.766-1.558-2.935-1.933-4.175-.707z" fill="#009DFF" fill-rule="nonzero"></path></svg>